<?xml version="1.0" standalone="no"?>
<!DOCTYPE svg PUBLIC "-//W3C//DTD SVG 20010904//EN"
 "http://www.w3.org/TR/2001/REC-SVG-20010904/DTD/svg10.dtd">
<svg version="1.0" xmlns="http://www.w3.org/2000/svg"
 width="200.000000pt" height="200.000000pt" viewBox="0 0 200.000000 200.000000"
 preserveAspectRatio="xMidYMid meet">
<metadata>
Created by potrace 1.16, written by Peter Selinger 2001-2019
</metadata>
<g transform="translate(0.000000,200.000000) scale(0.100000,-0.100000)"
fill="#000000" stroke="none">
<path d="M54 1231 c-38 -23 -54 -65 -54 -140 0 -135 27 -161 170 -161 83 0 93
2 115 25 17 16 25 35 25 60 0 33 -2 35 -34 35 -28 0 -35 -4 -38 -22 -3 -21 -9
-23 -71 -26 -42 -2 -74 2 -83 9 -16 13 -20 125 -5 148 10 15 97 27 134 17 14
-3 27 -15 30 -26 4 -15 13 -20 36 -20 28 0 31 3 31 33 0 23 -8 41 -26 58 -22
21 -37 24 -112 27 -72 2 -92 0 -118 -17z"/>
<path d="M350 1091 l0 -161 35 0 35 0 0 65 0 65 75 0 75 0 0 -65 0 -65 35 0
35 0 0 161 0 160 -32 -3 c-33 -3 -33 -4 -36 -60 l-3 -58 -74 0 -74 0 -3 58
c-3 56 -3 57 -35 60 l-33 3 0 -160z"/>
<path d="M733 1235 c-46 -20 -58 -48 -57 -146 0 -133 26 -159 154 -159 129 0
155 27 154 160 0 98 -12 126 -59 146 -43 18 -150 18 -192 -1z m181 -87 c11
-44 6 -116 -10 -132 -17 -17 -118 -22 -142 -7 -17 10 -27 79 -18 125 l7 36 78
0 c73 0 79 -2 85 -22z"/>
<path d="M1020 1090 l0 -160 35 0 35 0 0 65 0 65 63 0 c36 0 68 -5 75 -12 7
-7 12 -36 12 -65 l0 -53 35 0 35 0 0 54 c0 30 -5 67 -10 82 -7 18 -7 36 1 59
17 45 1 86 -42 107 -26 14 -59 18 -136 18 l-103 0 0 -160z"/>
<path d="M1340 1135 c0 -186 21 -210 174 -204 126 6 130 11 134 185 l4 135
-34 -3 -33 -3 -3 -115 c-2 -76 -7 -117 -15 -122 -19 -12 -132 -9 -145 4 -8 8
-12 50 -12 125 l0 113 -35 0 -35 0 0 -115z"/>
<path d="M1733 1235 c-58 -25 -64 -118 -10 -158 21 -16 43 -20 106 -21 83 -1
109 -12 97 -41 -5 -13 -19 -15 -83 -13 -72 3 -78 5 -81 26 -3 18 -10 22 -38
22 -31 0 -34 -3 -34 -29 0 -43 9 -60 41 -76 34 -18 186 -20 222 -4 28 13 47
48 47 85 0 29 -26 84 -40 84 -6 0 -10 4 -10 10 0 5 6 7 13 5 6 -3 18 -1 26 4
12 8 13 16 2 51 -10 33 -20 45 -46 56 -44 18 -170 18 -212 -1z"/>
</g>
</svg>
